<svg width="608" height="415" viewBox="0 0 608 415" fill="none" xmlns="http://www.w3.org/2000/svg">
<path d="M440.548 176.21L418.688 166.209L425.768 151.607L342.667 99.9225V80.0985L412.051 37.0875L424.264 56.3805L366.827 89.922L435.857 130.543L498.338 0.890994L520.021 10.8915L513.029 25.4055L601.264 79.9215V99.9225L532.322 142.756L519.667 123.729L577.192 89.922L502.94 46.4685L440.548 176.21Z" fill="#07CCE7"/>
<path d="M82.0368 5.067L56.7258 81H30.1278L4.53079 5.067H28.9123L43.7128 63.697L59.1568 5.067H82.0368ZM160.059 59.121C160.059 61.981 160.44 64.0545 161.203 65.3415C162.013 66.6285 163.3 67.6057 165.064 68.273L160.416 83.145C155.936 82.716 152.146 81.7388 149.048 80.2135C145.997 78.6405 143.59 76.281 141.826 73.135C138.919 76.6147 135.201 79.2125 130.672 80.9285C126.144 82.5968 121.52 83.431 116.801 83.431C108.984 83.431 102.74 81.2145 98.0684 76.7815C93.4448 72.3008 91.1329 66.557 91.1329 59.55C91.1329 51.3037 94.3504 44.9402 100.785 40.4595C107.268 35.9788 116.372 33.7385 128.098 33.7385H138.323V30.8785C138.323 23.1088 133.318 19.224 123.308 19.224C120.877 19.224 117.755 19.5815 113.941 20.2965C110.128 20.9638 106.315 21.941 102.501 23.228L97.2819 8.213C102.192 6.354 107.292 4.94783 112.583 3.9945C117.922 3.04117 122.688 2.5645 126.883 2.5645C138.18 2.5645 146.522 4.87633 151.908 9.5C157.342 14.076 160.059 20.7017 160.059 29.377V59.121ZM124.595 67.272C127.026 67.272 129.576 66.557 132.245 65.127C134.915 63.6493 136.941 61.5758 138.323 58.9065V46.6085H132.746C126.454 46.6085 121.83 47.5857 118.875 49.54C115.92 51.4467 114.442 54.259 114.442 57.977C114.442 60.8847 115.324 63.1727 117.087 64.841C118.899 66.4617 121.401 67.272 124.595 67.272ZM182.597 81V65.842H192.607V20.082H182.597V5.067H209.839L213.986 22.1555C216.703 15.6252 220.158 10.7632 224.353 7.5695C228.595 4.37583 233.767 2.77899 239.869 2.77899C242.443 2.77899 244.731 2.99349 246.733 3.4225C248.735 3.80383 250.617 4.352 252.381 5.067L248.163 36.813H234.006V22.799C229.716 23.5617 225.95 25.8973 222.709 29.806C219.467 33.667 216.965 38.4337 215.201 44.106V65.842H230.216V81H182.597Z" fill="#07CCE7"/>
<path d="M15.109 164.2C15.109 167.39 15.4473 170.28 16.124 172.871C16.8007 175.442 17.9413 177.994 19.546 180.527C21.1507 183.04 23.345 185.805 26.129 188.821L20.793 193.635C17.7383 191.006 15.0897 188.231 12.847 185.312C10.6043 182.393 8.874 179.203 7.656 175.742C6.438 172.281 5.829 168.434 5.829 164.2C5.829 159.966 6.438 156.119 7.656 152.658C8.874 149.197 10.6043 146.007 12.847 143.088C15.0897 140.169 17.7383 137.394 20.793 134.765L26.129 139.579C23.5383 142.402 21.431 145.089 19.807 147.641C18.183 150.174 16.994 152.774 16.24 155.442C15.486 158.091 15.109 161.01 15.109 164.2ZM54.4683 164.2C54.4683 161.01 54.0913 158.091 53.3373 155.442C52.5833 152.774 51.3943 150.174 49.7703 147.641C48.1657 145.089 46.0583 142.402 43.4483 139.579L48.7843 134.765C51.839 137.394 54.4877 140.169 56.7303 143.088C58.973 146.007 60.7033 149.197 61.9213 152.658C63.1393 156.119 63.7483 159.966 63.7483 164.2C63.7483 168.434 63.1393 172.281 61.9213 175.742C60.7033 179.203 58.973 182.393 56.7303 185.312C54.4877 188.231 51.839 191.006 48.7843 193.635L43.4483 188.821C46.2323 185.805 48.4267 183.04 50.0313 180.527C51.636 177.994 52.7767 175.442 53.4533 172.871C54.13 170.28 54.4683 167.39 54.4683 164.2ZM153.551 146.974L171.096 166.462L153.551 185.95L147.548 180.788L149.665 178.497C150.013 178.072 150.39 177.666 150.796 177.279C151.222 176.892 151.744 176.496 152.362 176.09H109.761V168.985H158.365L160.714 166.462L158.365 163.939H109.761V156.776H152.362C151.744 156.389 151.222 156.003 150.796 155.616C150.39 155.21 150.013 154.814 149.665 154.427L147.548 152.136L153.551 146.974ZM235.721 135.78V142.16C233.962 142.16 232.589 142.411 231.603 142.914C230.617 143.397 230.192 144.374 230.327 145.843L231.226 154.398C231.458 156.563 231.216 158.313 230.501 159.647C229.805 160.981 228.732 162.006 227.282 162.721C225.851 163.417 224.16 163.91 222.207 164.2C224.276 164.509 226.025 165.012 227.456 165.708C228.887 166.404 229.931 167.409 230.588 168.724C231.245 170.039 231.458 171.798 231.226 174.002L230.327 182.557C230.192 184.026 230.617 185.003 231.603 185.486C232.589 185.989 233.962 186.24 235.721 186.24V192.62C230.385 192.62 226.634 191.808 224.469 190.184C222.323 188.579 221.453 185.824 221.859 181.919L222.729 173.625C222.961 171.421 222.313 169.923 220.786 169.13C219.259 168.318 217.258 167.912 214.783 167.912V160.488C216.407 160.488 217.847 160.324 219.104 159.995C220.361 159.647 221.318 159.057 221.975 158.226C222.632 157.395 222.884 156.244 222.729 154.775L221.859 146.539C221.434 142.556 222.304 139.772 224.469 138.187C226.634 136.582 230.385 135.78 235.721 135.78ZM89.6807 217.464V250.814C89.6807 252.051 90.0287 252.941 90.7247 253.482C91.44 254.004 92.4164 254.265 93.6537 254.265C94.4464 254.265 95.21 254.178 95.9447 254.004C96.6794 253.811 97.3657 253.588 98.0037 253.337L100.208 259.456C99.1637 259.997 97.907 260.471 96.4377 260.877C94.9684 261.283 93.2574 261.486 91.3047 261.486C87.5927 261.486 84.8667 260.423 83.1267 258.296C81.3867 256.15 80.5167 253.279 80.5167 249.683V223.728H71.4397V217.464H89.6807ZM116.338 247.769C116.647 250.282 117.469 252.09 118.803 253.192C120.137 254.275 121.78 254.816 123.733 254.816C125.144 254.816 126.507 254.584 127.822 254.12C129.137 253.656 130.403 253.037 131.621 252.264L135.304 257.252C133.854 258.489 132.095 259.504 130.026 260.297C127.977 261.09 125.637 261.486 123.008 261.486C119.489 261.486 116.541 260.79 114.163 259.398C111.785 257.987 109.997 256.053 108.798 253.598C107.599 251.143 107 248.32 107 245.13C107 242.095 107.58 239.34 108.74 236.865C109.9 234.371 111.592 232.389 113.815 230.92C116.058 229.431 118.793 228.687 122.022 228.687C124.961 228.687 127.503 229.315 129.649 230.572C131.814 231.829 133.487 233.636 134.666 235.995C135.865 238.354 136.464 241.186 136.464 244.492C136.464 245.014 136.445 245.575 136.406 246.174C136.387 246.773 136.348 247.305 136.29 247.769H116.338ZM122.022 234.835C120.379 234.835 119.054 235.425 118.049 236.604C117.044 237.783 116.435 239.668 116.222 242.259H127.532C127.513 240.016 127.078 238.218 126.227 236.865C125.376 235.512 123.975 234.835 122.022 234.835ZM169.095 251.626C169.095 252.786 169.25 253.627 169.559 254.149C169.888 254.671 170.41 255.067 171.125 255.338L169.24 261.37C167.423 261.196 165.886 260.8 164.629 260.181C163.392 259.543 162.416 258.586 161.7 257.31C160.521 258.721 159.013 259.775 157.176 260.471C155.34 261.148 153.464 261.486 151.55 261.486C148.38 261.486 145.847 260.587 143.952 258.789C142.077 256.972 141.139 254.642 141.139 251.8C141.139 248.455 142.444 245.874 145.054 244.057C147.684 242.24 151.376 241.331 156.132 241.331H160.279V240.171C160.279 237.02 158.249 235.444 154.189 235.444C153.203 235.444 151.937 235.589 150.39 235.879C148.844 236.15 147.297 236.546 145.75 237.068L143.633 230.978C145.625 230.224 147.693 229.654 149.839 229.267C152.005 228.88 153.938 228.687 155.639 228.687C160.221 228.687 163.605 229.625 165.789 231.5C167.993 233.356 169.095 236.043 169.095 239.562V251.626ZM154.711 254.932C155.697 254.932 156.732 254.642 157.814 254.062C158.897 253.463 159.719 252.622 160.279 251.539V246.551H158.017C155.465 246.551 153.59 246.947 152.391 247.74C151.193 248.513 150.593 249.654 150.593 251.162C150.593 252.341 150.951 253.269 151.666 253.946C152.401 254.603 153.416 254.932 154.711 254.932ZM178.237 260.5V254.352H182.297V235.792H178.237V229.702H189.286L190.968 236.633C192.07 233.984 193.471 232.012 195.173 230.717C196.893 229.422 198.991 228.774 201.466 228.774C202.51 228.774 203.438 228.861 204.25 229.035C205.062 229.19 205.825 229.412 206.541 229.702L204.83 242.578H199.088V236.894C197.348 237.203 195.82 238.151 194.506 239.736C193.191 241.302 192.176 243.235 191.461 245.536V254.352H197.551V260.5H178.237ZM212.724 260.5V229.702H220.728L221.366 233.269C222.739 231.722 224.189 230.572 225.716 229.818C227.243 229.064 228.983 228.687 230.936 228.687C233.565 228.687 235.634 229.489 237.142 231.094C238.65 232.699 239.404 234.961 239.404 237.88V260.5H230.24V240.519C230.24 238.624 230.027 237.31 229.602 236.575C229.196 235.821 228.423 235.444 227.282 235.444C226.315 235.444 225.387 235.753 224.498 236.372C223.628 236.991 222.758 237.851 221.888 238.953V260.5H212.724ZM258.55 240.2C258.55 243.39 258.889 246.28 259.565 248.871C260.242 251.442 261.383 253.994 262.987 256.527C264.592 259.04 266.786 261.805 269.57 264.821L264.234 269.635C261.18 267.006 258.531 264.231 256.288 261.312C254.046 258.393 252.315 255.203 251.097 251.742C249.879 248.281 249.27 244.434 249.27 240.2C249.27 235.966 249.879 232.119 251.097 228.658C252.315 225.197 254.046 222.007 256.288 219.088C258.531 216.169 261.18 213.394 264.234 210.765L269.57 215.579C266.98 218.402 264.872 221.089 263.248 223.641C261.624 226.174 260.435 228.774 259.681 231.442C258.927 234.091 258.55 237.01 258.55 240.2ZM297.91 240.2C297.91 237.01 297.533 234.091 296.779 231.442C296.025 228.774 294.836 226.174 293.212 223.641C291.607 221.089 289.5 218.402 286.89 215.579L292.226 210.765C295.28 213.394 297.929 216.169 300.172 219.088C302.414 222.007 304.145 225.197 305.363 228.658C306.581 232.119 307.19 235.966 307.19 240.2C307.19 244.434 306.581 248.281 305.363 251.742C304.145 255.203 302.414 258.393 300.172 261.312C297.929 264.231 295.28 267.006 292.226 269.635L286.89 264.821C289.674 261.805 291.868 259.04 293.473 256.527C295.077 253.994 296.218 251.442 296.895 248.871C297.571 246.28 297.91 243.39 297.91 240.2ZM7.743 287.78C13.079 287.78 16.82 288.582 18.966 290.187C21.1313 291.792 22.011 294.556 21.605 298.481L20.735 306.775C20.503 308.979 21.1507 310.487 22.678 311.299C24.2247 312.092 26.2257 312.488 28.681 312.488V319.912C27.057 319.912 25.6167 320.086 24.36 320.434C23.1033 320.763 22.1463 321.343 21.489 322.174C20.8317 323.005 20.5803 324.156 20.735 325.625L21.605 333.861C22.0497 337.824 21.1797 340.608 18.995 342.213C16.8297 343.818 13.079 344.62 7.743 344.62V338.24C9.52167 338.24 10.904 337.989 11.89 337.486C12.876 337.003 13.2917 336.026 13.137 334.557L12.238 326.002C12.006 323.817 12.238 322.068 12.934 320.753C13.6493 319.419 14.732 318.404 16.182 317.708C17.632 316.993 19.3333 316.49 21.286 316.2C19.2173 315.891 17.458 315.388 16.008 314.692C14.5773 313.996 13.5333 312.991 12.876 311.676C12.2187 310.342 12.006 308.583 12.238 306.398L13.137 297.843C13.2917 296.374 12.8663 295.397 11.861 294.914C10.875 294.411 9.50233 294.16 7.743 294.16V287.78Z" fill="#07CCE7"/>
<path d="M542.831 278.877C538.731 274.953 533.864 271.84 528.507 269.717C523.15 267.593 517.408 266.5 511.61 266.5C505.811 266.5 500.069 267.593 494.712 269.717C489.355 271.84 484.488 274.953 480.389 278.877L471.881 287.017L463.374 278.877C455.094 270.955 443.863 266.504 432.153 266.504C420.443 266.504 409.212 270.955 400.932 278.877C392.652 286.799 388 297.544 388 308.748C388 319.952 392.652 330.696 400.932 338.619L409.44 346.758L471.881 406.5L534.323 346.758L542.831 338.619C546.932 334.697 550.185 330.04 552.405 324.915C554.625 319.789 555.767 314.296 555.767 308.748C555.767 303.2 554.625 297.706 552.405 292.581C550.185 287.456 546.932 282.799 542.831 278.877V278.877Z" stroke="#07CCE7" stroke-width="17" stroke-linecap="round" stroke-linejoin="round"/>
</svg>
