<?xml version="1.0" encoding="UTF-8" standalone="no"?>
<svg
   xmlns:dc="http://purl.org/dc/elements/1.1/"
   xmlns:cc="http://creativecommons.org/ns#"
   xmlns:rdf="http://www.w3.org/1999/02/22-rdf-syntax-ns#"
   xmlns:svg="http://www.w3.org/2000/svg"
   xmlns="http://www.w3.org/2000/svg"
   xmlns:sodipodi="http://sodipodi.sourceforge.net/DTD/sodipodi-0.dtd"
   xmlns:inkscape="http://www.inkscape.org/namespaces/inkscape"
   inkscape:export-ydpi="96.000008"
   inkscape:export-xdpi="96.000008"
   inkscape:export-filename="C:\Users\diego\Documents\Raphael Devs\Desenvolvimento\RED Devs\Identidade Visual\LOGO\2.2\PNG - Uso digital\RED Devs horizontal.png"
   sodipodi:docname="RED Devs horizontal.svg"
   inkscape:version="1.0beta2 (235953b, 2020-02-06)"
   id="svg932"
   version="1.1"
   viewBox="0 0 135.46667 67.733335"
   height="256"
   width="512">
  <defs
     id="defs926" />
  <sodipodi:namedview
     inkscape:document-rotation="0"
     inkscape:window-maximized="1"
     inkscape:window-y="-8"
     inkscape:window-x="-8"
     inkscape:window-height="715"
     inkscape:window-width="1366"
     inkscape:guide-bbox="true"
     showguides="true"
     units="px"
     showgrid="true"
     inkscape:current-layer="layer1"
     inkscape:document-units="mm"
     inkscape:cy="315.80686"
     inkscape:cx="35.503826"
     inkscape:zoom="0.7071068"
     inkscape:pageshadow="2"
     inkscape:pageopacity="0.0"
     borderopacity="1.0"
     bordercolor="#666666"
     pagecolor="#ffffff"
     id="base">
    <inkscape:grid
       enabled="false"
       id="grid1579"
       type="xygrid" />
  </sodipodi:namedview>
  <metadata
     id="metadata929">
    <rdf:RDF>
      <cc:Work
         rdf:about="">
        <dc:format>image/svg+xml</dc:format>
        <dc:type
           rdf:resource="http://purl.org/dc/dcmitype/StillImage" />
        <dc:title></dc:title>
      </cc:Work>
    </rdf:RDF>
  </metadata>
  <g
     style="display:inline;opacity:1"
     transform="translate(0,-161.53332)"
     id="layer1"
     inkscape:groupmode="layer"
     inkscape:label="Camada 1">
    <path
       d="m 76.325882,196.77297 c 0,0 7.10606,0 7.10606,0 0,0 -5.061791,-7.37615 -5.061791,-7.37615 2.915998,-1.4063 4.592399,-3.95821 4.592399,-7.40877 0,-5.36448 -4.023364,-8.68469 -10.426276,-8.68469 0,0 -10.728976,0 -10.728976,0 0,0 0,23.46961 0,23.46961 0,0 6.640439,0 6.640439,0 0,0 0,-6.23621 0,-6.23621 0,0 3.619146,0 3.619146,0 0,0 4.258999,6.23621 4.258999,6.23621 z m -0.06788,-14.78492 c 0,2.14581 -1.373709,3.41797 -4.121047,3.41797 0,0 -3.688084,0 -3.688084,0 0,0 0,-6.87229 0,-6.87229 0,0 3.688084,0 3.688084,0 2.747338,0 4.121047,1.27406 4.121047,3.45432 z m 17.028395,9.65419 c 0,0 0,-4.2897 0,-4.2897 0,0 10.426273,0 10.426273,0 0,0 0,-4.96404 0,-4.96404 0,0 -10.426273,0 -10.426273,0 0,0 0,-3.95441 0,-3.95441 0,0 11.836413,0 11.836413,0 0,0 0,-5.13073 0,-5.13073 0,0 -18.407909,0 -18.407909,0 0,0 0,23.46961 0,23.46961 0,0 18.840869,0 18.840869,0 0,0 0,-5.13073 0,-5.13073 0,0 -12.269373,0 -12.269373,0 z m 16.035983,5.13073 c 0,0 11.09684,0 11.09684,0 7.78047,0 13.10853,-4.52533 13.10853,-11.73481 0,-7.20946 -5.32806,-11.7348 -13.10853,-11.7348 0,0 -11.09684,0 -11.09684,0 0,0 0,23.46961 0,23.46961 z m 6.64051,-5.29931 c 0,0 0,-12.87099 0,-12.87099 0,0 4.19006,0 4.19006,0 3.98694,0 6.66918,2.37955 6.66918,6.43549 0,4.05594 -2.68224,6.4355 -6.66918,6.4355 0,0 -4.19006,0 -4.19006,0 z"
       id="Vetor"
       inkscape:connector-curvature="0"
       style="fill:#9e1111;fill-opacity:1;stroke:none;stroke-width:0.191588" />
    <path
       d="m 61.807298,217.4017 c 0,0 6.432903,0 6.432903,0 5.157506,0 8.639575,-3.39176 8.639575,-8.12986 0,-4.73809 -3.482069,-8.12763 -8.639575,-8.12763 0,0 -6.432903,0 -6.432903,0 0,0 0,16.25749 0,16.25749 z m 1.187217,-1.06894 c 0,0 0,-14.1197 0,-14.1197 0,0 5.155354,0 5.155354,0 4.59616,0 7.546993,2.92503 7.546993,7.05878 0,4.13377 -2.950833,7.06092 -7.546993,7.06092 0,0 -5.155354,0 -5.155354,0 z m 22.554948,0.11853 c -2.486271,0 -4.368181,-1.39577 -4.948884,-3.62401 0,0 10.241889,-1.998 10.241889,-1.998 -0.161307,-3.22613 -2.460462,-5.6436 -5.688746,-5.6436 -3.439052,0 -5.897363,2.55507 -5.897363,6.15334 0,3.60032 2.60026,6.15759 6.269446,6.15759 1.8561,0 3.505729,-0.6757 4.57465,-1.97657 0,0 -0.673168,-0.76547 -0.673168,-0.76547 -0.92913,1.1377 -2.320662,1.6969 -3.87781,1.6969 z M 85.15369,206.20728 c 2.48627,0 4.204719,1.78945 4.529489,3.94883 0,0 -9.24394,1.81087 -9.24394,1.81087 -0.02371,-0.23032 -0.04741,-0.48603 -0.04741,-0.71805 0,-2.95085 1.976542,-5.0414 4.761767,-5.0414 z m 17.52217,-0.93126 c 0,0 -4.875736,10.84843 -4.875736,10.84843 0,0 -4.83275,-10.84843 -4.83275,-10.84843 0,0 -1.230229,0 -1.230229,0 0,0 5.45646,12.12593 5.45646,12.12593 0,0 1.182917,0 1.182917,0 0,0 5.482248,-12.12593 5.482248,-12.12593 0,0 -1.18291,0 -1.18291,0 z m 6.56195,12.22059 c 3.08848,0 4.78327,-1.34853 4.78327,-3.32511 0,-4.61979 -8.03521,-2.04321 -8.03521,-5.68874 0,-1.30121 1.04527,-2.27548 3.41325,-2.27548 1.3012,0 2.62607,0.35055 3.64767,1.09257 0,0 0.53338,-0.93127 0.53338,-0.93127 -0.95064,-0.71804 -2.62393,-1.1829 -4.15741,-1.1829 -3.06483,0 -4.59617,1.48622 -4.59617,3.32079 0,4.76172 8.03522,2.16151 8.03522,5.68874 0,1.37216 -1.02161,2.2798 -3.5767,2.2798 -1.79158,0 -3.4369,-0.67571 -4.36818,-1.46472 0,0 -0.53557,0.92915 -0.53557,0.92915 0.95493,0.88181 2.85835,1.55717 4.8564,1.55717 z"
       id="Vetor #1"
       inkscape:connector-curvature="0"
       style="fill:#c60f0f;fill-opacity:1;stroke:none;stroke-width:0.215075" />
    <path
       d="m 121.86591,215.10385 v -0.54121 l -4.99594,-3.51437 v -0.0636 l 4.99594,-3.51231 v -0.54675 l -5.4804,3.84941 v 0.48239 l 5.4804,3.84338 z m 1.15828,1.77336 h 0.51473 l 3.74324,-11.58161 h -0.51473 z m 5.01889,-1.77336 5.4804,-3.84339 v -0.48239 l -5.4804,-3.84941 v 0.54676 l 4.99595,3.5123 v 0.0636 l -4.99595,3.51436 v 0.5412 z"
       id="Vetor #2"
       inkscape:connector-curvature="0"
       style="fill:#9e1111;fill-opacity:1;stroke:none;stroke-width:0.201856"
       sodipodi:nodetypes="ccccccccccccccccccccccccc" />
    <rect
       style="fill:#dcdcdc;fill-opacity:1;stroke-width:1.5875;stroke-linecap:round;stroke-linejoin:round"
       id="rect1438"
       width="17.991667"
       height="55.5625"
       x="-35.671562"
       y="159.94582"
       ry="8.9958334" />
    <circle
       style="fill:#9e1111;fill-opacity:1;stroke-width:1.5875;stroke-linecap:round;stroke-linejoin:round"
       id="path1432"
       cx="-26.675732"
       cy="169.47081"
       r="7.1437497" />
    <circle
       r="7.1437497"
       cy="187.72707"
       cx="-26.675732"
       id="circle1434"
       style="fill:#c60f0f;fill-opacity:1;stroke-width:1.5875;stroke-linecap:round;stroke-linejoin:round" />
    <circle
       style="fill:#0f0f0f;fill-opacity:1;stroke-width:1.5875;stroke-linecap:round;stroke-linejoin:round"
       id="circle1436"
       cx="-26.675732"
       cy="206.51248"
       r="7.1437497" />
    <path
       style="fill:#c60f0f;fill-opacity:1;stroke:none;stroke-width:0.0780528px;stroke-linecap:butt;stroke-linejoin:miter;stroke-opacity:1"
       d="M 3.4023678,190.21433 28.713911,222.56205 54.228953,190.21433 28.713911,216.18176 Z"
       id="path1460"
       inkscape:connector-curvature="0"
       sodipodi:nodetypes="ccccc" />
    <g
       id="layer2-9"
       inkscape:label="FOX"
       style="display:none"
       transform="translate(283.12174,277.7851)">
      <text
         xml:space="preserve"
         style="font-style:normal;font-variant:normal;font-weight:300;font-stretch:normal;font-size:22.4105px;line-height:1.25;font-family:Montserrat;-inkscape-font-specification:'Montserrat Light';letter-spacing:0px;word-spacing:0px;fill:#790d25;fill-opacity:1;stroke-width:1.6808"
         x="21.452017"
         y="120.42396"
         id="text1623-9"><tspan
           sodipodi:role="line"
           id="tspan1621-5"
           x="21.452017"
           y="120.42396"
           style="font-style:normal;font-variant:normal;font-weight:300;font-stretch:normal;font-family:Montserrat;-inkscape-font-specification:'Montserrat Light';fill:#790d25;fill-opacity:1;stroke-width:1.6808">Ver么nica</tspan></text>
      <text
         id="text1619-4"
         y="120.42396"
         x="21.452017"
         style="font-style:normal;font-variant:normal;font-weight:300;font-stretch:normal;font-size:22.4105px;line-height:1.25;font-family:Montserrat;-inkscape-font-specification:'Montserrat Light';letter-spacing:0px;word-spacing:0px;fill:#790d25;fill-opacity:1;stroke-width:1.6808"
         xml:space="preserve"><tspan
           style="font-style:normal;font-variant:normal;font-weight:300;font-stretch:normal;font-family:Montserrat;-inkscape-font-specification:'Montserrat Light';fill:#790d25;fill-opacity:1;stroke-width:1.6808"
           y="120.42396"
           x="21.452017"
           id="tspan1617-4"
           sodipodi:role="line">Ver么nica</tspan></text>
      <path
         sodipodi:nodetypes="cccsc"
         inkscape:connector-curvature="0"
         id="path1605-0"
         d="m -100.65596,15.127589 c 9.270629,29.591621 14.514927,32.613913 33.291133,52.034401 23.190354,-17.874144 27.542204,-18.920579 31.750004,-46.037492 0,0 -37.061952,57.992122 -27.611355,31.80963 5.827662,-16.145299 -10.493461,6.421465 -37.429782,-37.806539 z"
         style="opacity:0.998;fill:#790d25;fill-opacity:1;stroke:none;stroke-width:0.264583px;stroke-linecap:butt;stroke-linejoin:miter;stroke-opacity:1" />
      <path
         sodipodi:nodetypes="cccssc"
         inkscape:connector-curvature="0"
         id="path1609-8"
         d="m -98.717952,20.727623 c 6.056407,22.780553 12.576919,39.18472 31.353125,58.605208 23.190354,-17.874144 27.542206,-31.091414 31.750004,-58.208333 0,0 -5.471203,13.881442 -12.925074,25.093313 -8.976794,13.502603 -24.779784,27.663922 -19.219524,12.139337 6.961112,-19.435847 -5.024909,8.862299 -30.958531,-37.629525 z"
         style="opacity:0.998;fill:#c8102e;fill-opacity:1;stroke:none;stroke-width:0.264583px;stroke-linecap:butt;stroke-linejoin:miter;stroke-opacity:1" />
      <circle
         style="opacity:0.998;fill:#790d25;fill-opacity:1;stroke:none;stroke-width:1.32292;stroke-linecap:round;stroke-linejoin:round;paint-order:stroke markers fill"
         id="path1611-5"
         cx="-59.135357"
         cy="-0.66582477"
         r="4.9578495" />
    </g>
    <path
       sodipodi:nodetypes="ccccccccccc"
       inkscape:connector-curvature="0"
       id="path1462"
       d="m 3.4527289,171.55022 c 0,0 -0.00839,-0.0694 -0.044022,7.0198 l -2.4e-5,11.64279 c 8.4371801,10.03538 16.8743611,20.07075 25.3115411,30.10613 l 3.469473,-4.09382 22.045561,-26.01231 -2.3e-5,-11.64224 c 0,-6.2472 -2.076113,-5.58156 -2.076113,-5.58156 0,0 2.783588,-5.2472 -12.065429,7.7458 H 17.904277 C 3.7969828,169.13108 3.4527289,171.55022 3.4527289,171.55022 Z"
       style="fill:#9e1111;fill-opacity:1;stroke:none;stroke-width:0.0780528px;stroke-linecap:butt;stroke-linejoin:miter;stroke-opacity:1" />
    <path
       sodipodi:nodetypes="cccc"
       inkscape:connector-curvature="0"
       id="path1464"
       d="m 25.279029,216.225 h 6.910659 l -3.475777,4.09547 z"
       style="fill:#0f0f0f;fill-opacity:1;stroke:none;stroke-width:0.0780545px;stroke-linecap:butt;stroke-linejoin:miter;stroke-opacity:1" />
    <path
       sodipodi:nodetypes="cccc"
       style="fill:#0f0f0f;fill-opacity:1;stroke:none;stroke-width:0.124533;stroke-linecap:butt;stroke-linejoin:miter;stroke-miterlimit:4;stroke-dasharray:none;stroke-opacity:1"
       d="m 54.235236,178.56905 c 4.07e-4,0.0739 0,-10.32099 0,-10.32099 l -14.141548,12.48675 12.065433,-7.49826"
       id="path1468"
       inkscape:connector-curvature="0" />
    <path
       sodipodi:nodetypes="cccc"
       inkscape:connector-curvature="0"
       id="path1466"
       d="m 3.4091932,178.55892 c 0,0.19216 0,-10.32099 0,-10.32099 l 14.4950828,12.49688 -12.4252776,-7.5084"
       style="fill:#0f0f0f;fill-opacity:1;stroke:none;stroke-width:0.136985;stroke-linecap:butt;stroke-linejoin:miter;stroke-miterlimit:10;stroke-dasharray:none;stroke-opacity:1" />
  </g>
  <g
     style="display:none"
     inkscape:label="FOX"
     id="layer2"
     inkscape:groupmode="layer">
    <text
       id="text1623"
       y="120.42396"
       x="21.452017"
       style="font-style:normal;font-variant:normal;font-weight:300;font-stretch:normal;font-size:22.4105px;line-height:1.25;font-family:Montserrat;-inkscape-font-specification:'Montserrat Light';letter-spacing:0px;word-spacing:0px;fill:#790d25;fill-opacity:1;stroke-width:1.6808"
       xml:space="preserve"><tspan
         style="font-style:normal;font-variant:normal;font-weight:300;font-stretch:normal;font-family:Montserrat;-inkscape-font-specification:'Montserrat Light';fill:#790d25;fill-opacity:1;stroke-width:1.6808"
         y="120.42396"
         x="21.452017"
         id="tspan1621"
         sodipodi:role="line">Ver么nica</tspan></text>
    <text
       xml:space="preserve"
       style="font-style:normal;font-variant:normal;font-weight:300;font-stretch:normal;font-size:22.4105px;line-height:1.25;font-family:Montserrat;-inkscape-font-specification:'Montserrat Light';letter-spacing:0px;word-spacing:0px;fill:#790d25;fill-opacity:1;stroke-width:1.6808"
       x="21.452017"
       y="120.42396"
       id="text1619"><tspan
         sodipodi:role="line"
         id="tspan1617"
         x="21.452017"
         y="120.42396"
         style="font-style:normal;font-variant:normal;font-weight:300;font-stretch:normal;font-family:Montserrat;-inkscape-font-specification:'Montserrat Light';fill:#790d25;fill-opacity:1;stroke-width:1.6808">Ver么nica</tspan></text>
    <path
       style="opacity:0.998;fill:#790d25;fill-opacity:1;stroke:none;stroke-width:0.264583px;stroke-linecap:butt;stroke-linejoin:miter;stroke-opacity:1"
       d="m -100.65596,15.127589 c 9.270629,29.591621 14.514927,32.613913 33.291133,52.034401 23.190354,-17.874144 27.542204,-18.920579 31.750004,-46.037492 0,0 -37.061952,57.992122 -27.611355,31.80963 5.827662,-16.145299 -10.493461,6.421465 -37.429782,-37.806539 z"
       id="path1605"
       inkscape:connector-curvature="0"
       sodipodi:nodetypes="cccsc" />
    <path
       style="opacity:0.998;fill:#c8102e;fill-opacity:1;stroke:none;stroke-width:0.264583px;stroke-linecap:butt;stroke-linejoin:miter;stroke-opacity:1"
       d="m -98.717952,20.727623 c 6.056407,22.780553 12.576919,39.18472 31.353125,58.605208 23.190354,-17.874144 27.542206,-31.091414 31.750004,-58.208333 0,0 -5.471203,13.881442 -12.925074,25.093313 -8.976794,13.502603 -24.779784,27.663922 -19.219524,12.139337 6.961112,-19.435847 -5.024909,8.862299 -30.958531,-37.629525 z"
       id="path1609"
       inkscape:connector-curvature="0"
       sodipodi:nodetypes="cccssc" />
    <circle
       r="4.9578495"
       cy="-0.66582477"
       cx="-59.135357"
       id="path1611"
       style="opacity:0.998;fill:#790d25;fill-opacity:1;stroke:none;stroke-width:1.32292;stroke-linecap:round;stroke-linejoin:round;paint-order:stroke markers fill" />
  </g>
</svg>
